<?xml version="1.0" encoding="utf-8"?>
<!-- Generator: Adobe Illustrator 24.3.0, SVG Export Plug-In . SVG Version: 6.00 Build 0)  -->
<svg version="1.0" id="emoji" xmlns="http://www.w3.org/2000/svg" xmlns:xlink="http://www.w3.org/1999/xlink" x="0px" y="0px"
	 viewBox="0 0 48 55.47" style="enable-background:new 0 0 48 55.47;" xml:space="preserve">
<style type="text/css">
	.st0{fill:#FCEA2B;}
	.st1{fill:none;stroke:#000000;stroke-width:2;stroke-linecap:round;stroke-linejoin:round;}
</style>
<g id="color">
	<circle class="st0" cx="24" cy="24" r="24"/>
	<path class="st0" d="M7.1,50.1c-0.3-1.2-0.4-2.4-0.3-3.6C7,45.4,9.1,40,9.5,39.2s1.4-4.5,2.4-4.8s1.2,0.1,1.1,0.7s-0.6,7.7-0.6,7.7
		l9.4-2.8c0,0,7.7-1.9,7.9-1c2.1,2-5.4,4.5-7.5,4.4c0,0,1.1,0.6,0.9,1.3s-0.8,1.2-1,1.2s0.5,0.5,0.6,1.4c0.9,1.8-2.8,2.3-2.8,2.3
		c1.3-0.2,3.3,2.1,0.1,2.7c-1,0.3-4.8,1.4-4.8,1.4s-3.3,1.2-5.2-0.1C8.8,52.8,7.7,51.6,7.1,50.1z"/>
</g>
<g id="line">
	<path class="st1" d="M16.9,32.3c2.4-0.7,11.9,0.5,14.1,2.1"/>
	<path class="st1" d="M10.4,10.3c1.3-0.9,2.8-1.3,4.4-1.1c1.6,0,3.1,0.6,4.2,1.7"/>
	<path class="st1" d="M39.1,14.3c-2.7-0.7-5.5-0.8-8.2-0.3"/>
	<path class="st1" d="M30,46.2C42.3,42.9,49.5,30.3,46.2,18S30.3-1.5,18,1.8C8,4.5,1,13.6,1,24c0,4.6,1.4,9.2,4,13"/>
	<path d="M19,18.5c0,1.7-1.3,3-3,3s-3-1.3-3-3s1.3-3,3-3S19,16.8,19,18.5"/>
	<path d="M36,21.5c0,1.7-1.3,3-3,3s-3-1.3-3-3s1.3-3,3-3S36,19.8,36,21.5"/>
	<path class="st1" d="M7.7,44.5c-1,1.6-1.2,3.7-0.5,5.5c1.1,3.3,4,5.2,7.2,4.2l4.9-1.4l1-0.3c0.8-0.2,1.3-1.1,1.1-1.8l0,0
		c-0.2-0.5-0.6-0.9-1.2-1l1.2-0.3c0.8-0.2,1.3-1.1,1.1-1.8c-0.2-0.5-0.6-1-1.2-1.1l1.2-0.4c0.8-0.2,1.3-1.1,1.1-1.8
		c-0.1-0.5-0.5-0.9-1-1l6.4-1.9c0.8-0.2,1.3-1.1,1.1-1.8s-1.1-1.3-1.8-1.1l0,0l-10.2,3L13,43l0.6-7.8c0.1-0.9-1.5-1.2-2.1,0.2
		L7.7,44.5z"/>
</g>
</svg>
